<svg xmlns="http://www.w3.org/2000/svg" width="34.265" height="23.364" viewBox="0 0 34.265 23.364"><defs><style>.a{fill:#fff;}</style></defs><g transform="translate(-2.5 -17.67)"><g transform="translate(2.5 17.67)"><path class="a" d="M85.422,43.977h0a4.148,4.148,0,0,1-1.189.252,4.015,4.015,0,0,1-1.153-.324c-.216-.072-.432-.18-.685-.288a3.3,3.3,0,0,0-.9-.216,2.687,2.687,0,0,0-.937.144,2.205,2.205,0,0,0-.432.18,1.379,1.379,0,0,0-.4.288.464.464,0,0,0-.144.432.393.393,0,0,0,.5.324l.18-.036a2.3,2.3,0,0,1,.252-.072.793.793,0,0,1,.288-.036,2.71,2.71,0,0,1,.541,0,1.421,1.421,0,0,1,.5.18l.685.324a5.1,5.1,0,0,0,.793.252,2.734,2.734,0,0,0,2.487-.613.446.446,0,0,0,.144-.5A.417.417,0,0,0,85.422,43.977Z" transform="translate(-51.797 -34.127)"/><path class="a" d="M85.422,35.577h0a4.148,4.148,0,0,1-1.189.252,4.015,4.015,0,0,1-1.153-.324c-.216-.072-.432-.18-.685-.288a3.3,3.3,0,0,0-.9-.216,2.687,2.687,0,0,0-.937.144,2.2,2.2,0,0,0-.432.18,1.379,1.379,0,0,0-.4.288.464.464,0,0,0-.144.432.393.393,0,0,0,.5.324l.18-.036a2.3,2.3,0,0,1,.252-.072.793.793,0,0,1,.288-.036,2.71,2.71,0,0,1,.541,0,1.421,1.421,0,0,1,.5.18l.685.324a5.143,5.143,0,0,0,.793.288,2.734,2.734,0,0,0,2.487-.613.446.446,0,0,0,.144-.5A.378.378,0,0,0,85.422,35.577Z" transform="translate(-51.797 -28.755)"/><path class="a" d="M80.224,27.869l.18-.036a2.3,2.3,0,0,1,.252-.072.793.793,0,0,1,.288-.036,2.71,2.71,0,0,1,.541,0,1.421,1.421,0,0,1,.5.18l.685.324a5.143,5.143,0,0,0,.793.288,2.734,2.734,0,0,0,2.487-.613.446.446,0,0,0,.144-.5.457.457,0,0,0-.577-.288h-.036a2.926,2.926,0,0,1-1.153.216A4.016,4.016,0,0,1,83.179,27c-.216-.072-.432-.18-.685-.288a3.3,3.3,0,0,0-.9-.216,2.687,2.687,0,0,0-.937.144,2.205,2.205,0,0,0-.432.18,1.379,1.379,0,0,0-.4.288.464.464,0,0,0-.144.432A.486.486,0,0,0,80.224,27.869Z" transform="translate(-51.861 -23.318)"/><path class="a" d="M27.007,19.627l-2.631,1.261L11.4,17.861a7.278,7.278,0,0,0-8.9,7.1,7.3,7.3,0,0,0,2.739,5.694,7.168,7.168,0,0,0,2.559,1.3l2.162,7.82a1.73,1.73,0,0,0,1.658,1.261h2.775a1.707,1.707,0,0,0,1.369-.685,1.737,1.737,0,0,0,.288-1.514L14,31.448l10.379-2.415,2.631,1.261a1.415,1.415,0,0,0,.5.108,1.469,1.469,0,0,0,.649-.18,1.194,1.194,0,0,0,.577-1.009V20.708A1.15,1.15,0,0,0,28.16,19.7,1.112,1.112,0,0,0,27.007,19.627Zm-22.885,5.3a5.531,5.531,0,0,1,2.126-4.4,5.656,5.656,0,0,1,3.5-1.225,5.306,5.306,0,0,1,1.3.144l12.65,2.919v5.118L11.041,30.4a5.5,5.5,0,0,1-4.757-1.081A5.566,5.566,0,0,1,4.122,24.925ZM14.5,39.3a.112.112,0,0,1-.072.036l-2.847-.072L9.6,32.169h.18a8.644,8.644,0,0,0,1.658-.18l1.009-.252ZM27.079,28.457l-1.8-.865v-5.37l1.8-.865Z" transform="translate(-2.5 -17.67)"/><path class="a" d="M20.315,32.107a3.207,3.207,0,1,0-3.207,3.207A3.215,3.215,0,0,0,20.315,32.107Zm-4.793,0a1.586,1.586,0,1,1,1.586,1.586A1.6,1.6,0,0,1,15.522,32.107Z" transform="translate(-9.792 -24.853)"/></g></g></svg>