<svg xmlns="http://www.w3.org/2000/svg" width="30.055" height="32.54" viewBox="0 0 30.055 32.54"><defs><style>.a{fill:#fff;}</style></defs><g transform="translate(-7.281 -1.686)"><g transform="translate(7.281 1.685)"><path class="a" d="M36.749,29.523c-4.393,1.06-7.46-.833-7.99-5.264a42.366,42.366,0,0,1,.038-6.93c.114-2.121.871-4.165.454-6.362a10.8,10.8,0,0,0-7.876-8.823,22.6,22.6,0,0,0-2.726-.417A9.6,9.6,0,0,0,8.765,7.3,15.584,15.584,0,0,0,7.7,17.519c.492,2.083,1.325,4.052,1.931,6.1.947,3.219,1.628,6.437-.417,9.542-.038.038,0,.114.038.227a5.235,5.235,0,0,0,3.408-1.363A8.283,8.283,0,0,0,15.278,27.1a5.43,5.43,0,0,0-1.022-4.658c-.644-.833-1.136-1.818-1.7-2.726a5.766,5.766,0,0,1-.871-3.522,4.88,4.88,0,0,1,.189-.909,33.007,33.007,0,0,0,1.212-4.128c.114-2.272,1.628-3.257,3.559-2.2,2.726,1.515,5.339,3.219,7.914,4.961a3.064,3.064,0,0,1,1.4,3.029,29.2,29.2,0,0,1-.417,3.181c-.454,1.818-1.174,3.484-3.143,4.241a.859.859,0,0,0-.341.682,14.176,14.176,0,0,0,1.515,5.832,5.564,5.564,0,0,0,6.816,3.105,17.38,17.38,0,0,0,6.778-3.673.459.459,0,0,0-.417-.8Z" transform="translate(-7.281 -1.685)"/></g></g></svg>