<svg xmlns="http://www.w3.org/2000/svg" width="24.625" height="33.373" viewBox="0 0 24.625 33.373"><defs><style>.a{fill:#fff;}</style></defs><g transform="translate(0)"><path class="a" d="M66.827,5.029V5H61.068V6.368H66.54V7.736H61.068V9.1H66.54v1.368H61.068V11.84H66.54v1.368H61.068v1.368H66.54v1.368H61.068v1.368H66.54V18.68H61.068v1.368H66.54v1.368H61.068v1.368H66.54V33.73a1.368,1.368,0,0,0,2.736,0V7.736a2.727,2.727,0,0,0-2.45-2.708" transform="translate(-44.651 -5)"/><path class="a" d="M24.661,20.049a1.711,1.711,0,0,1,1.368-1.675V5H25L22.266,24.153v2.975a4.1,4.1,0,1,0,2.728,4.03l.008.007V24.153h1.026V21.725a1.711,1.711,0,0,1-1.368-1.676m-3.762,13a2.052,2.052,0,1,1,2.052-2.052A2.054,2.054,0,0,1,20.9,33.046" transform="translate(-16.794 -5)"/><path class="a" d="M51.241,34.193a4.1,4.1,0,0,0-3.935-7.065V24.153L44.569,5H43.543V18.374a1.71,1.71,0,0,1,0,3.351v2.428h1.026v7.012l.009-.007A4.1,4.1,0,0,0,48.6,35.095c.174.507.394,1.1.432,1.186a4.1,4.1,0,0,0,1.359,1.833c1.444.911,3.149-.776,1.706-2.046,0,0-.935-.287-.852-1.874m-2.568-1.148a2.052,2.052,0,1,1,2.052-2.052,2.054,2.054,0,0,1-2.052,2.052" transform="translate(-33.624 -5)"/></g></svg>