<svg xmlns="http://www.w3.org/2000/svg" width="29.167" height="31.585" viewBox="0 0 29.167 31.585"><defs><style>.a{fill:#fff;stroke:#fff;stroke-width:0.4px;}</style></defs><g transform="translate(-4.005 -1.633)"><path class="a" d="M42.96,2.365a1.552,1.552,0,0,0-.947-.517,1.272,1.272,0,0,0-1.035.316.471.471,0,0,0-.088.119l-7.18,6.688-4.2-.29a.517.517,0,0,0-.388.134l-1.288,1.2h0l-1.9,1.759a.516.516,0,1,0,.7.755l1.521-1.407,1.221,1.314L27.83,13.874a.516.516,0,0,0,.7.755L30.086,13.2l1.267,1.371L29.7,16.119a.518.518,0,0,0,.7.76l1.655-1.552,1.035,1.133-1.516,1.407a.525.525,0,0,0,.729.755l1.9-1.754h0l1.288-1.2a.517.517,0,0,0,.166-.372V11.1l7.19-6.657a.414.414,0,0,0,.14-.093,1.257,1.257,0,0,0,.393-1,1.588,1.588,0,0,0-.419-.983Zm-.621,1.148-.067.052-7.459,6.921a.517.517,0,0,0-.166.44v4.138l-.745.7-4.971-5.343.745-.693,4.185.295a.517.517,0,0,0,.388-.14L41.7,2.955l.052-.057a.238.238,0,0,1,.119,0,.517.517,0,0,1,.316.176.517.517,0,0,1,.155.331.274.274,0,0,1-.016.109Z" transform="translate(-10.41 0)"/><path class="a" d="M35.353,41.533a2.286,2.286,0,0,0-.429-1.34L33.47,37.938a.517.517,0,0,0-.44-.238h0a.517.517,0,0,0-.434.238l-1.407,2.245h0a2.276,2.276,0,0,0-.429,1.345,2.3,2.3,0,0,0,4.6,0Zm-3.564,0a1.252,1.252,0,0,1,.129-.574l1.122-1.769.988,1.552v.026l.114.186a1.236,1.236,0,0,1,.15.595,1.267,1.267,0,0,1-2.529,0Z" transform="translate(-12.817 -17.314)"/><path class="a" d="M26.663,14.515a.517.517,0,0,0-.31.662,12.143,12.143,0,0,1,.719,6.492,9.311,9.311,0,0,1-1.878,3.481,6.777,6.777,0,0,0-1.816,4.231V34.75H14.037v-2.86a.517.517,0,0,0-.631-.517c-.031,0-2.959.631-4.521-.755C7.178,29.1,7.561,25.222,7.566,25.186a.517.517,0,0,0-.336-.517l-1.645-.621,3.1-3.621a.517.517,0,0,0,.1-.476,10.769,10.769,0,0,1-.269-3.621,10.7,10.7,0,0,0,4.169,1.035,1.035,1.035,0,0,1,.771.414,2.412,2.412,0,0,1,.166,1.966c-.548,2.354,1.148,2.814,2.271,3.1l.559.16a.409.409,0,0,0,.155,0A.517.517,0,0,0,16.794,22l-.6-.176c-1.288-.347-1.847-.559-1.552-1.888a3.279,3.279,0,0,0-.347-2.819,2.069,2.069,0,0,0-1.552-.822c-3.1-.171-5.421-1.412-6.166-3.316a9.5,9.5,0,0,1-.243-3.967c1.459.9,5.069,2.416,11.157.672a8.659,8.659,0,0,1,5.312.145.518.518,0,1,0,.372-.967,9.564,9.564,0,0,0-5.969-.171C9.791,10.8,6.315,7.733,6.278,7.7a.517.517,0,0,0-.859.284c0,.14-.6,3.362.186,5.364a5.323,5.323,0,0,0,1.929,2.374,11.737,11.737,0,0,0,.186,4.231L4.333,23.939a.512.512,0,0,0,.212.817l1.971.74c-.062,1.138-.062,4.35,1.7,5.912,1.469,1.3,3.714,1.226,4.8,1.091v2.767a.517.517,0,0,0,.517.517H23.9a.517.517,0,0,0,.517-.517v-5.9a5.874,5.874,0,0,1,1.609-3.621,10.278,10.278,0,0,0,2.069-3.864c.657-2.695-.305-5.85-.75-7.081a.517.517,0,0,0-.678-.284Z" transform="translate(0 -2.766)"/></g></svg>