<svg xmlns="http://www.w3.org/2000/svg" width="26.542" height="31.389" viewBox="0 0 26.542 31.389"><defs><style>.a,.b{fill:none;stroke-width:2px;}.a,.b,.c{stroke:#fff;}.a{fill-rule:evenodd;}.c{fill:#fff;}</style></defs><g transform="translate(-10.062 -16)"><g transform="translate(11.07 17)"><path class="a" d="M53.442,30.668v8.26a20.834,20.834,0,0,1-2.753,1.967,2.3,2.3,0,0,0-.688.688V20.245c0-4.327,6.588-4.327,6.588,0V28.8Z" transform="translate(-49.331 -17)"/><path class="b" d="M62.153,66.789a3.087,3.087,0,0,1,4.228-.492,2.956,2.956,0,0,1,.492,4.13c0,.1-11.111,14.356-19.174,19.371a2.888,2.888,0,0,1-4.032-.885,3,3,0,0,1,.885-4.13C51.73,80.26,62.153,66.888,62.153,66.789Z" transform="translate(-43.194 -60.889)"/><circle class="c" cx="0.688" cy="0.688" r="0.688" transform="translate(20.138 7.866)"/><circle class="c" cx="0.688" cy="0.688" r="0.688" transform="translate(2.636 25.369)"/></g></g></svg>